<svg width="32" height="32" viewBox="0 0 32 32" fill="none" xmlns="http://www.w3.org/2000/svg">
  <!-- Safety shield background -->
  <path d="M16 2L4 7V16C4 23.732 9.268 29 16 29C22.732 29 28 23.732 28 16V7L16 2Z" fill="#EF4444" />
  
  <!-- Inner shield area -->
  <path d="M16 5L7 8.75V16C7 21.523 11.477 26 16 26C20.523 26 25 21.523 25 16V8.75L16 5Z" fill="white" />
  
  <!-- Woman silhouette -->
  <path d="M16 10C14.9 10 14 10.9 14 12C14 13.1 14.9 14 16 14C17.1 14 18 13.1 18 12C18 10.9 17.1 10 16 10Z" fill="#EF4444" />
  <path d="M19 15H13C13 15 12 15 12 16C12 17 12.6 19.5 13 20.5C13.4 21.5 14.5 22 14.5 22L14 24H15L15.5 22H16.5L17 24H18L17.5 22C17.5 22 18.6 21.5 19 20.5C19.4 19.5 20 17 20 16C20 15 19 15 19 15Z" fill="#EF4444" />
</svg> 