<svg width="32" height="32" viewBox="0 0 32 32" fill="none" xmlns="http://www.w3.org/2000/svg">
  <!-- Shield background -->
  <path d="M16 2L4 7V16C4 23.732 9.268 29 16 29C22.732 29 28 23.732 28 16V7L16 2Z" fill="#EF4444" />
  
  <!-- Inner shield area -->
  <path d="M16 5L7 8.75V16C7 21.523 11.477 26 16 26C20.523 26 25 21.523 25 16V8.75L16 5Z" fill="white" />
  
  <!-- Woman profile silhouette -->
  <path d="M13 24V15.5C13 15.5 13 13.5 14 12.5C15 11.5 16 11 17 10C18 9 19 8 19 8C19 8 19.5 9 19.5 10C19.5 11 20 11 20.5 11.5C21 12 21 13 21 13C21 13 20 14 20 15C20 16 20 16 19 17C18 18 18 18 18 19C18 20 19 24 19 24H13Z" fill="#EF4444"/>
</svg> 